HIERARCHY
ROOT Hips
{
	OFFSET 0.000000 0.000000 0.000000
	CHANNELS 6 Xposition Yposition Zposition Zrotation Yrotation Xrotation 
	JOINT LHipJoint
	{
		OFFSET 0.000000 0.000000 0.000000
		CHANNELS 3 Zrotation Yrotation Xrotation
		JOINT LeftUpLeg
		{
			OFFSET 1.363060 -1.794630 0.839290
			CHANNELS 3 Zrotation Yrotation Xrotation
			JOINT LeftLeg
			{
				OFFSET 2.448110 -6.726130 0.000000
				CHANNELS 3 Zrotation Yrotation Xrotation
				JOINT LeftFoot
				{
					OFFSET 2.562200 -7.039590 0.000000
					CHANNELS 3 Zrotation Yrotation Xrotation
					JOINT LeftToeBase
					{
						OFFSET 0.157640 -0.433110 2.322550
						CHANNELS 3 Zrotation Yrotation Xrotation
						End Site
						{
							OFFSET 0.000000 0.000000 0.000000
						}
					}
				}
			}
		}
	}
	JOINT RHipJoint
	{
		OFFSET 0.000000 0.000000 0.000000
		CHANNELS 3 Zrotation Yrotation Xrotation
		JOINT RightUpLeg
		{
			OFFSET -1.305520 -1.794630 0.839290
			CHANNELS 3 Zrotation Yrotation Xrotation
			JOINT RightLeg
			{
				OFFSET -2.542530 -6.985550 0.000000
				CHANNELS 3 Zrotation Yrotation Xrotation
				JOINT RightFoot
				{
					OFFSET -2.568260 -7.056230 0.000000
					CHANNELS 3 Zrotation Yrotation Xrotation
					JOINT RightToeBase
					{
						OFFSET -0.164730 -0.452590 2.363150
						CHANNELS 3 Zrotation Yrotation Xrotation
						End Site
						{
							OFFSET 0.000000 0.000000 0.000000
						}
					}
				}
			}
		}
	}
	JOINT LowerBack
	{
		OFFSET 0.000000 0.000000 0.000000
		CHANNELS 3 Zrotation Yrotation Xrotation
		JOINT Spine
		{
			OFFSET 0.028270 2.035590 -0.193380
			CHANNELS 3 Zrotation Yrotation Xrotation
			JOINT Spine1
			{
				OFFSET 0.056720 2.048850 -0.042750
				CHANNELS 3 Zrotation Yrotation Xrotation
				JOINT Neck
				{
					OFFSET 0.000000 0.000000 0.000000
					CHANNELS 3 Zrotation Yrotation Xrotation
					JOINT Neck1
					{
						OFFSET -0.054170 1.746240 0.172020
						CHANNELS 3 Zrotation Yrotation Xrotation
						JOINT Head
						{
							OFFSET 0.104070 1.761360 -0.123970
							CHANNELS 3 Zrotation Yrotation Xrotation
							End Site
							{
								OFFSET 0.000000 0.000000 0.000000
							}
						}
					}
				}
				JOINT LeftShoulder
				{
					OFFSET 0.000000 0.000000 0.000000
					CHANNELS 3 Zrotation Yrotation Xrotation
					JOINT LeftArm
					{
						OFFSET 3.362410 1.200890 -0.311210
						CHANNELS 3 Zrotation Yrotation Xrotation
						JOINT LeftForeArm
						{
							OFFSET 4.983000 -0.000000 -0.000000
							CHANNELS 3 Zrotation Yrotation Xrotation
							JOINT LeftHand
							{
								OFFSET 3.483560 -0.000000 -0.000000
								CHANNELS 3 Zrotation Yrotation Xrotation
								JOINT LeftFingerBase
								{
									OFFSET 0.000000 0.000000 0.000000
									CHANNELS 3 Zrotation Yrotation Xrotation
									JOINT LeftHandIndex1
									{
										OFFSET 0.715260 -0.000000 -0.000000
										CHANNELS 3 Zrotation Yrotation Xrotation
										End Site
										{
											OFFSET 0.000000 0.000000 0.000000
										}
									}
								}
								JOINT LThumb
								{
									OFFSET 0.000000 0.000000 0.000000
									CHANNELS 3 Zrotation Yrotation Xrotation
									End Site
									{
										OFFSET 0.000000 0.000000 0.000000
									}
								}
							}
						}
					}
				}
				JOINT RightShoulder
				{
					OFFSET 0.000000 0.000000 0.000000
					CHANNELS 3 Zrotation Yrotation Xrotation
					JOINT RightArm
					{
						OFFSET -3.136600 1.374050 -0.404650
						CHANNELS 3 Zrotation Yrotation Xrotation
						JOINT RightForeArm
						{
							OFFSET -5.241900 -0.000000 -0.000000
							CHANNELS 3 Zrotation Yrotation Xrotation
							JOINT RightHand
							{
								OFFSET -3.444170 -0.000000 -0.000000
								CHANNELS 3 Zrotation Yrotation Xrotation
								JOINT RightFingerBase
								{
									OFFSET 0.000000 0.000000 0.000000
									CHANNELS 3 Zrotation Yrotation Xrotation
									JOINT RightHandIndex1
									{
										OFFSET -0.622530 -0.000000 -0.000000
										CHANNELS 3 Zrotation Yrotation Xrotation
										End Site
										{
											OFFSET 0.000000 0.000000 0.000000
										}
									}
								}
								JOINT RThumb
								{
									OFFSET 0.000000 0.000000 0.000000
									CHANNELS 3 Zrotation Yrotation Xrotation
									End Site
									{
										OFFSET 0.000000 0.000000 0.000000
									}
								}
							}
						}
					}
				}
			}
		}
	}
}
MOTION
Frames: 9
Frame Time: 0.008333
23.807476 14.318837 1.923604 -119.678706 -88.458315 161.377580 -7.120782 0.049612 2.544154 -13.648620 -10.167835 -99.378710 -0.146009 6.478887 68.643798 1.823435 4.755851 -14.262252 -0.304600 0.000000 -21.487100 11.269441 -2.169866 -2.841528 11.825872 -6.458201 -13.128284 2.091399 -0.858639 32.927726 -0.961760 -1.860520 -14.470681 0.474700 -0.000000 -79.857300 -11.152460 1.330753 3.244051 -2.933077 1.794806 -2.182708 -3.164130 1.773778 0.478134 7.115556 -12.282899 -9.689310 0.780834 0.138960 -1.031713 0.000000 0.000000 0.000000 10.787562 16.749831 3.388636 -59.011311 34.301293 27.289022 -0.489398 -83.028871 0.017038 -13.416803 1.933766 -0.223887 0.151869 0.055473 -0.000000 0.000000 0.000000 0.000000 0.000000 0.000000 0.000000 -5.528339 -4.923012 0.432245 56.212302 15.441250 20.621773 178.508976 70.274217 -179.953022 5.918602 3.244290 0.197969 -0.107231 -0.512182 -0.000000 0.000000 0.000000 0.000000 0.000000 0.000000 0.000000 
23.567493 14.291313 1.908506 -120.056904 -88.544543 161.463466 -7.126179 0.122783 2.368350 -14.257624 -9.739546 -98.790547 -0.055431 6.612535 70.203330 1.792276 4.428976 -15.400336 -0.450600 0.000000 -20.103700 11.423321 -2.287379 -2.818784 11.519830 -7.005348 -12.684454 1.876359 -0.966353 33.468700 -0.833300 -1.911701 -11.971186 0.283300 -0.000000 -80.513800 -11.586372 1.318116 3.320937 -3.059892 1.788883 -2.181129 -3.295522 1.770572 0.427598 7.123978 -12.148222 -9.685857 0.720553 0.134361 -1.033538 0.000000 0.000000 0.000000 10.240747 16.516934 3.459088 -58.412449 32.862999 26.818074 -0.539170 -82.385057 0.016996 -12.941384 2.013272 -0.224484 0.136000 0.057940 -0.000000 0.000000 0.000000 0.000000 0.000000 0.000000 0.000000 -5.396699 -4.759578 0.407014 57.110624 15.204598 20.663201 178.538633 70.511491 -179.952144 6.034376 3.214503 0.200469 -0.113139 -0.513395 -0.000000 0.000000 0.000000 0.000000 0.000000 0.000000 0.000000 
23.330947 14.268124 1.895477 -119.414008 -88.550386 160.558752 -7.099299 0.204879 2.206866 -14.785464 -9.284902 -98.166964 0.025736 6.719160 71.641666 1.803340 4.243231 -16.664333 -0.607200 -0.000001 -18.875500 11.621649 -2.378769 -2.801187 11.253611 -7.549397 -12.520714 1.649642 -1.091655 34.397081 -0.746191 -2.044437 -9.656835 0.122300 -0.000000 -80.149500 -11.927749 1.307276 3.387138 -3.167556 1.782771 -2.180324 -3.436006 1.766894 0.383162 7.118790 -11.971392 -9.673252 0.646422 0.128406 -1.033483 0.000000 0.000000 0.000000 9.597223 16.344786 3.530964 -57.787220 31.254118 26.317195 -0.594512 -81.683052 0.016875 -12.392866 2.094291 -0.223169 0.118628 0.060930 -0.000000 0.000000 0.000000 0.000000 0.000000 0.000000 0.000000 -5.219140 -4.562514 0.372435 58.068751 15.017977 20.724453 178.582298 70.889878 -179.951889 6.070677 3.169282 0.199279 -0.116648 -0.513526 -0.000000 0.000000 0.000000 0.000000 0.000000 0.000000 0.000000 
23.098437 14.249823 1.884532 -118.086570 -88.495003 159.008560 -7.051128 0.285146 2.061983 -15.217529 -8.822874 -97.517808 0.100014 6.799327 72.950910 1.851734 4.197370 -17.985899 -0.775701 0.000000 -17.913500 11.847843 -2.440353 -2.792480 11.035136 -8.078897 -12.645869 1.417505 -1.228756 35.723279 -0.709649 -2.310625 -7.658595 -0.010100 -0.000000 -78.796500 -12.187593 1.293283 3.446619 -3.258366 1.771740 -2.179390 -3.584582 1.758111 0.342535 7.101061 -11.748876 -9.654218 0.558463 0.121189 -1.032673 0.000000 0.000000 0.000000 8.868546 16.223146 3.606427 -57.150578 29.477258 25.777416 -0.656267 -80.917036 0.016659 -11.791025 2.177267 -0.220147 0.100076 0.064383 -0.000000 0.000000 0.000000 0.000000 0.000000 0.000000 0.000000 -4.994581 -4.329059 0.329653 59.088908 14.866469 20.791566 178.638328 71.398349 -179.952130 6.046162 3.116680 0.195697 -0.118393 -0.512826 -0.000000 0.000000 0.000000 0.000000 0.000000 0.000000 0.000000 
22.870657 14.236998 1.875638 -116.280508 -88.396568 157.020887 -6.989410 0.353860 1.933302 -15.545178 -8.369594 -96.846736 0.168795 6.853065 74.123496 1.930154 4.277406 -19.305622 -0.957600 0.000000 -17.294200 12.088430 -2.469755 -2.796859 10.876112 -8.581727 -13.054678 1.187245 -1.373787 37.439177 -0.729295 -2.766097 -6.090248 -0.121800 0.000000 -76.555400 -12.372106 1.272269 3.507018 -3.333564 1.751980 -2.176998 -3.740650 1.740539 0.302152 7.070947 -11.477943 -9.629171 0.456709 0.112753 -1.031540 0.000000 0.000000 0.000000 8.071059 16.132198 3.686902 -56.521795 27.541401 25.187541 -0.725414 -80.079323 0.016340 -11.156497 2.265324 -0.216120 0.080712 0.068221 -0.000000 0.000000 0.000000 0.000000 0.000000 0.000000 0.000000 -4.722968 -4.056409 0.280441 60.173039 14.732463 20.846618 178.705209 72.029633 -179.952696 5.985208 3.066457 0.191120 -0.119185 -0.511542 -0.000000 0.000000 0.000000 0.000000 0.000000 0.000000 0.000000 
22.648184 14.230170 1.868660 -114.167453 -88.272280 154.763081 -6.921635 0.403361 1.817940 -15.768884 -7.936213 -96.150081 0.231974 6.880978 75.152519 2.029936 4.460222 -20.577099 -1.152100 -0.000000 -17.048800 12.330343 -2.466548 -2.819078 10.786716 -9.047757 -13.729930 0.965937 -1.525725 39.520382 -0.807187 -3.458848 -5.033138 -0.221400 -0.000000 -73.564700 -12.487633 1.242008 3.578957 -3.394380 1.721208 -2.171478 -3.903591 1.712037 0.257675 7.027545 -11.157394 -9.595802 0.341399 0.103105 -1.029661 0.000000 0.000000 0.000000 7.224439 16.045728 3.772788 -55.921784 25.462667 24.536357 -0.802923 -79.161516 0.015915 -10.508486 2.363184 -0.211788 0.060929 0.072359 -0.000000 0.000000 0.000000 0.000000 0.000000 0.000000 0.000000 -4.405898 -3.742865 0.226793 61.323704 14.598269 20.869354 178.781662 72.780545 -179.953398 5.915120 3.028314 0.186843 -0.119911 -0.509878 -0.000000 0.000000 0.000000 0.000000 0.000000 0.000000 0.000000 
22.431768 14.229710 1.863455 -111.888804 -88.136470 152.371456 -6.854957 0.429236 1.711754 -15.895926 -7.527887 -95.419420 0.288062 6.884522 76.032554 2.142204 4.717316 -21.769567 -1.356500 0.000000 -17.163400 12.562279 -2.432382 -2.863503 10.773316 -9.471517 -14.646985 0.759218 -1.685968 41.928062 -0.942907 -4.419501 -4.527631 -0.310400 0.000000 -69.968200 -12.540702 1.202101 3.673368 -3.442073 1.678881 -2.161232 -4.072375 1.672170 0.204758 6.969501 -10.788028 -9.549393 0.213174 0.092233 -1.025847 0.000000 0.000000 0.000000 6.351401 15.934313 3.863555 -55.371552 23.263982 23.813968 -0.889580 -78.155434 0.015386 -9.864369 2.476778 -0.207758 0.041151 0.076730 -0.000000 0.000000 0.000000 0.000000 0.000000 0.000000 0.000000 -4.046310 -3.388774 0.170734 62.543896 14.449312 20.839515 178.866500 73.650328 -179.954058 5.861975 3.010508 0.184264 -0.121383 -0.507984 -0.000000 0.000000 0.000000 0.000000 0.000000 0.000000 0.000000 
22.221384 14.235843 1.859848 -109.568448 -87.999445 149.959809 -6.795672 0.430184 1.609397 -15.939938 -7.144101 -94.642607 0.334694 6.865950 76.760394 2.258879 5.019107 -22.867391 -1.566300 0.000000 -17.586900 12.775024 -2.370240 -2.933778 10.837406 -9.851945 -15.776759 0.570478 -1.857727 44.612665 -1.134303 -5.652738 -4.573612 -0.377500 0.000000 -65.892799 -12.537889 1.153603 3.800694 -3.477760 1.625863 -2.144704 -4.245404 1.621868 0.139902 6.894845 -10.372321 -9.483764 0.073087 0.080130 -1.018338 0.000000 0.000000 0.000000 5.476513 15.770599 3.957705 -54.890765 20.970671 23.015997 -0.985897 -77.053213 0.014752 -9.238222 2.612852 -0.204632 0.021804 0.081276 -0.000000 0.000000 0.000000 0.000000 0.000000 0.000000 0.000000 -3.648032 -2.996733 0.114016 63.833887 14.275471 20.738242 178.959175 74.646144 -179.954549 5.845675 3.018808 0.184180 -0.124194 -0.505893 -0.000000 0.000000 0.000000 0.000000 0.000000 0.000000 0.000000 
22.017581 14.248689 1.857695 -107.314275 -87.868110 147.623045 -6.748998 0.407554 1.505119 -15.918108 -6.778799 -93.805560 0.369057 6.828166 77.334997 2.373604 5.339188 -23.868660 -1.776800 0.000000 -18.238000 12.961888 -2.284000 -3.032083 10.975616 -10.191970 -17.088751 0.400570 -2.044745 47.516635 -1.377678 -7.135154 -5.135335 -0.398100 0.000000 -61.428200 -12.485315 1.098608 3.969243 -3.502397 1.564053 -2.121077 -4.420846 1.563023 0.059317 6.801573 -9.913730 -9.390763 -0.077349 0.066782 -1.004591 0.000000 0.000000 0.000000 4.622506 15.524623 4.052651 -54.495053 18.620510 22.136244 -1.091345 -75.855744 0.014015 -8.640699 2.778949 -0.203115 0.003331 0.085939 -0.000000 0.000000 0.000000 0.000000 0.000000 0.000000 0.000000 -3.216861 -2.570453 0.058235 65.192497 14.070584 20.548653 179.059149 75.775921 -179.954820 5.876235 3.054181 0.186989 -0.128627 -0.503541 -0.000000 0.000000 0.000000 0.000000 0.000000 0.000000 0.000000 
